<svg class="devicon" xmlns:svg="http://www.w3.org/2000/svg"
	 xmlns="http://www.w3.org/2000/svg" xmlns:xlink="http://www.w3.org/1999/xlink" x="0px" y="0px" width="600px" height="554.324px"
	 viewBox="0 0 600 554.324" enable-background="new 0 0 600 554.324" xml:space="preserve">
	<path id="cv_element" fill="#60be86" d="M228.35,260.638c-66.626-38.467-89.455-123.662-50.988-190.289
		C215.829,3.723,301.023-19.105,367.65,19.362s89.454,123.662,50.987,190.288c-12.226,21.177-29.811,38.762-50.987,50.988
		l-41.941-72.646c26.506-15.303,35.588-49.196,20.284-75.702c-15.303-26.506-49.196-35.587-75.702-20.284
		c-26.506,15.304-35.587,49.196-20.284,75.702c4.864,8.425,11.859,15.421,20.284,20.284L228.35,260.638z"/>
<g transform="rotate(180,457,415)">
	<path id="cv_element_1_" fill="#60be86" d="M526.65,294.362c66.627,38.467,89.454,123.662,50.987,190.288
		c-38.467,66.627-123.661,89.455-190.288,50.988s-89.455-123.662-50.987-190.289c12.226-21.176,29.811-38.761,50.987-50.987
		l41.941,72.645c-26.506,15.304-35.588,49.196-20.284,75.702c15.303,26.507,49.196,35.588,75.702,20.285
		c26.506-15.304,35.588-49.197,20.284-75.703c-4.863-8.425-11.859-15.42-20.284-20.284L526.65,294.362z"/>
</g>
<g transform="rotate(240,142,415)">
	<path id="cv_element_2_" fill="#60be86" d="M281.301,415c0,76.935-62.367,139.301-139.301,139.301S2.699,491.934,2.699,415
		c0-76.934,62.367-139.301,139.301-139.301c24.452,0,48.474,6.437,69.65,18.663l-41.941,72.645
		c-26.506-15.303-60.399-6.222-75.702,20.284s-6.222,60.399,20.284,75.703c26.506,15.303,60.399,6.222,75.702-20.285
		c4.864-8.424,7.425-17.98,7.425-27.709H281.301z"/>
</g>
</svg>
